<?xml version="1.0" encoding="UTF-8"?>
<svg xmlns="http://www.w3.org/2000/svg" xmlns:xlink="http://www.w3.org/1999/xlink" width="345px" height="345px" viewBox="0 0 259 259" version="1.1">
<g id="surface1">
<path style=" stroke:none;fill-rule:nonzero;fill:rgb(0%,0%,0%);fill-opacity:1;" d="M 108.277344 30.792969 C 107.558594 31.296875 102.738281 37.480469 83.457031 62.953125 C 78.996094 68.847656 70.21875 80.359375 64.03125 88.492188 C 57.84375 96.621094 48.132812 109.355469 42.445312 116.910156 C 32.59375 130.003906 29.640625 133.816406 14.53125 153.671875 C 10.863281 158.421875 7.914062 162.738281 7.914062 163.171875 C 7.914062 163.816406 13.8125 164.035156 31.296875 164.035156 C 52.660156 164.035156 54.75 163.960938 55.757812 162.738281 C 57.125 161.15625 67.554688 147.414062 86.332031 122.664062 C 102.808594 100.792969 118.78125 79.789062 126.121094 70.144531 C 128.851562 66.546875 131.371094 63.671875 131.800781 63.671875 C 132.160156 63.671875 149.425781 86.191406 170.007812 113.671875 L 207.558594 163.671875 L 230.511719 163.890625 C 243.390625 163.960938 253.820312 163.746094 254.179688 163.386719 C 254.539062 163.023438 251.589844 158.496094 246.988281 152.449219 C 238.925781 141.800781 219.933594 116.621094 182.738281 67.269531 C 171.085938 51.800781 160.078125 37.269531 158.277344 34.894531 L 154.898438 30.578125 L 131.945312 30.433594 C 119.355469 30.289062 108.636719 30.433594 108.277344 30.792969 Z M 108.277344 30.792969 "/>
<path style=" stroke:none;fill-rule:nonzero;fill:rgb(0%,0%,0%);fill-opacity:1;" d="M 100.144531 128.492188 C 97.628906 131.800781 95.828125 134.894531 96.046875 135.253906 C 96.546875 136.117188 166.621094 136.261719 167.199219 135.398438 C 167.34375 135.113281 165.402344 132.019531 162.738281 128.5625 L 157.988281 122.304688 L 131.371094 122.304688 L 104.679688 122.375 Z M 100.144531 128.492188 "/>
<path style=" stroke:none;fill-rule:nonzero;fill:rgb(0%,0%,0%);fill-opacity:1;" d="M 95.976562 183.675781 C 95.828125 184.179688 95.757812 188.496094 95.828125 193.242188 C 95.976562 200.292969 96.261719 201.804688 97.125 201.804688 C 97.988281 201.804688 98.203125 200.148438 98.421875 192.234375 C 98.5625 184.035156 98.421875 182.738281 97.484375 182.738281 C 96.835938 182.738281 96.1875 183.167969 95.976562 183.675781 Z M 95.976562 183.675781 "/>
<path style=" stroke:none;fill-rule:nonzero;fill:rgb(0%,0%,0%);fill-opacity:1;" d="M 239.359375 183.242188 C 238.714844 183.816406 238.714844 199.503906 239.285156 201.011719 C 239.503906 201.660156 240.152344 202.164062 240.726562 202.164062 C 241.515625 202.164062 241.734375 200.292969 241.734375 192.453125 C 241.734375 184.824219 241.515625 182.738281 240.796875 182.738281 C 240.222656 182.738281 239.574219 182.957031 239.359375 183.242188 Z M 239.359375 183.242188 "/>
<path style=" stroke:none;fill-rule:nonzero;fill:rgb(0%,0%,0%);fill-opacity:1;" d="M 6.617188 184.679688 C 4.820312 185.90625 2.878906 189.933594 2.878906 192.308594 C 2.878906 197.199219 7.484375 203.601562 9.570312 201.515625 C 10.144531 200.941406 9.929688 200.292969 8.851562 199.144531 C 5.324219 195.328125 5.105469 189.789062 8.492188 186.695312 C 9.425781 185.835938 10 184.679688 9.785156 184.25 C 9.136719 183.242188 8.632812 183.316406 6.617188 184.679688 Z M 6.617188 184.679688 "/>
<path style=" stroke:none;fill-rule:nonzero;fill:rgb(0%,0%,0%);fill-opacity:1;" d="M 11.511719 184.539062 C 11.511719 185.113281 12.300781 186.335938 13.308594 187.34375 C 14.75 188.78125 15.109375 189.863281 15.109375 192.8125 C 15.109375 195.832031 14.75 196.769531 12.949219 198.710938 C 10.433594 201.300781 11.007812 203.027344 13.886719 201.515625 C 16.476562 200.148438 17.984375 196.984375 17.984375 192.8125 C 17.984375 188.421875 16.617188 185.472656 14.027344 184.320312 C 11.652344 183.242188 11.511719 183.242188 11.511719 184.539062 Z M 11.511719 184.539062 "/>
<path style=" stroke:none;fill-rule:nonzero;fill:rgb(0%,0%,0%);fill-opacity:1;" d="M 147.917969 183.960938 C 147.199219 184.753906 147.414062 195.328125 148.277344 197.703125 C 149.214844 200.367188 152.304688 202.664062 153.382812 201.585938 C 153.960938 201.011719 153.601562 200.078125 152.234375 198.566406 C 150.507812 196.480469 150.363281 195.761719 150.363281 190.292969 C 150.363281 185.835938 150.074219 184.25 149.355469 183.960938 C 148.78125 183.746094 148.132812 183.746094 147.917969 183.960938 Z M 147.917969 183.960938 "/>
<path style=" stroke:none;fill-rule:nonzero;fill:rgb(0%,0%,0%);fill-opacity:1;" d="M 159.214844 184.035156 C 158.78125 184.320312 158.347656 187.273438 158.207031 191.230469 C 157.917969 197.417969 157.777344 198.066406 156.121094 199.285156 C 154.75 200.292969 154.539062 200.867188 155.113281 201.445312 C 156.40625 202.742188 158.925781 201.085938 160.078125 198.277344 C 161.226562 195.617188 161.65625 185.113281 160.726562 184.179688 C 160.363281 183.816406 159.714844 183.746094 159.214844 184.035156 Z M 159.214844 184.035156 "/>
<path style=" stroke:none;fill-rule:nonzero;fill:rgb(0%,0%,0%);fill-opacity:1;" d="M 124.464844 185.546875 C 123.886719 186.695312 123.886719 187.847656 124.535156 189.933594 C 125.253906 192.378906 125.253906 193.027344 124.246094 194.109375 C 122.59375 195.90625 122.738281 199.503906 124.394531 201.011719 C 126.332031 202.742188 127.84375 201.804688 126.191406 199.933594 C 125.039062 198.636719 125.039062 198.207031 125.902344 196.191406 C 127.054688 193.3125 127.269531 184.753906 126.121094 184.394531 C 125.613281 184.179688 124.894531 184.753906 124.464844 185.546875 Z M 124.464844 185.546875 "/>
<path style=" stroke:none;fill-rule:nonzero;fill:rgb(0%,0%,0%);fill-opacity:1;" d="M 128.0625 184.898438 C 128.0625 185.328125 128.5625 185.835938 129.140625 186.046875 C 129.71875 186.335938 130.21875 187.199219 130.21875 188.132812 C 130.21875 188.996094 129.71875 190.152344 129.140625 190.652344 C 127.703125 191.804688 127.773438 193.601562 129.28125 196.265625 C 130.4375 198.277344 130.4375 198.496094 129.28125 199.644531 C 127.628906 201.300781 128.421875 202.304688 130.648438 201.300781 C 131.945312 200.652344 132.59375 200.652344 133.238281 201.300781 C 134.394531 202.453125 135.976562 202.382812 135.976562 201.15625 C 135.976562 200.652344 135.472656 199.789062 134.894531 199.285156 C 134.246094 198.710938 134.035156 197.703125 134.320312 196.335938 C 134.679688 194.320312 134.605469 194.179688 132.808594 194.679688 C 130.507812 195.257812 129.5 193.386719 131.082031 191.515625 C 133.746094 188.421875 133.027344 184.179688 129.859375 184.179688 C 128.851562 184.179688 128.0625 184.539062 128.0625 184.898438 Z M 128.0625 184.898438 "/>
<path style=" stroke:none;fill-rule:nonzero;fill:rgb(0%,0%,0%);fill-opacity:1;" d="M 22.589844 188.710938 C 22.375 189.285156 22.304688 192.378906 22.445312 195.761719 C 22.589844 200.726562 22.878906 201.804688 23.882812 202.023438 C 24.890625 202.234375 25.109375 201.375 25.324219 195.6875 C 25.539062 189.644531 25.109375 187.773438 23.597656 187.773438 C 23.238281 187.773438 22.804688 188.207031 22.589844 188.710938 Z M 22.589844 188.710938 "/>
<path style=" stroke:none;fill-rule:nonzero;fill:rgb(0%,0%,0%);fill-opacity:1;" d="M 27.339844 188.496094 C 26.1875 189.214844 26.257812 189.355469 28.921875 190.511719 C 30.71875 191.230469 30.863281 191.660156 31.078125 196.550781 C 31.226562 200.867188 31.511719 201.804688 32.59375 202.023438 C 33.671875 202.234375 33.8125 201.585938 33.8125 196.550781 C 33.8125 191.589844 33.597656 190.722656 32.15625 189.355469 C 30.359375 187.632812 28.996094 187.414062 27.339844 188.496094 Z M 27.339844 188.496094 "/>
<path style=" stroke:none;fill-rule:nonzero;fill:rgb(0%,0%,0%);fill-opacity:1;" d="M 38.492188 188.636719 C 38.347656 189.144531 38.921875 192.308594 39.785156 195.6875 C 41.226562 201.300781 41.511719 201.804688 43.308594 202.023438 C 44.964844 202.234375 45.324219 201.875 45.972656 199.503906 C 46.90625 196.265625 46.980469 189.429688 46.1875 188.925781 C 45.828125 188.710938 45.183594 190.511719 44.675781 192.882812 C 44.246094 195.1875 43.597656 197.128906 43.238281 197.128906 C 42.878906 197.128906 42.445312 195.6875 42.160156 193.890625 C 41.511719 188.925781 39.425781 185.976562 38.492188 188.636719 Z M 38.492188 188.636719 "/>
<path style=" stroke:none;fill-rule:nonzero;fill:rgb(0%,0%,0%);fill-opacity:1;" d="M 53.957031 189.644531 C 53.527344 190.652344 53.023438 192.738281 52.808594 194.320312 C 51.941406 199.503906 50.9375 198.636719 49.929688 191.875 C 49.640625 189.574219 49.140625 188.496094 48.34375 188.496094 C 47.484375 188.496094 47.339844 189.214844 47.773438 193.101562 C 48.492188 200.148438 49.425781 202.304688 51.730469 202.023438 C 53.457031 201.804688 53.742188 201.300781 55.179688 195.6875 C 56.117188 192.308594 56.695312 189.144531 56.476562 188.636719 C 55.972656 187.199219 54.679688 187.632812 53.957031 189.644531 Z M 53.957031 189.644531 "/>
<path style=" stroke:none;fill-rule:nonzero;fill:rgb(0%,0%,0%);fill-opacity:1;" d="M 63.527344 188.496094 C 60.933594 189.574219 61.582031 190.722656 64.53125 190.511719 L 67.269531 190.292969 L 67.699219 193.746094 C 67.917969 195.976562 67.699219 197.917969 67.125 199.070312 C 66.621094 200.078125 66.1875 200.941406 66.1875 201.085938 C 66.1875 201.15625 67.410156 201.226562 68.847656 201.15625 L 71.511719 201.085938 L 71.367188 197.128906 C 70.9375 188.855469 68.707031 186.40625 63.527344 188.496094 Z M 63.527344 188.496094 "/>
<path style=" stroke:none;fill-rule:nonzero;fill:rgb(0%,0%,0%);fill-opacity:1;" d="M 76.476562 188.710938 C 76.117188 189.214844 75.972656 192.453125 76.117188 195.90625 C 76.332031 201.375 76.550781 202.234375 77.558594 202.023438 C 78.5625 201.804688 78.777344 200.726562 78.996094 195.257812 C 79.140625 190.003906 78.996094 188.566406 78.132812 188.277344 C 77.558594 188.0625 76.839844 188.277344 76.476562 188.710938 Z M 76.476562 188.710938 "/>
<path style=" stroke:none;fill-rule:nonzero;fill:rgb(0%,0%,0%);fill-opacity:1;" d="M 80.71875 188.636719 C 79.355469 190.003906 79.714844 190.652344 81.726562 190.652344 C 83.023438 190.652344 83.527344 190.292969 83.3125 189.429688 C 83.023438 187.917969 81.800781 187.558594 80.71875 188.636719 Z M 80.71875 188.636719 "/>
<path style=" stroke:none;fill-rule:nonzero;fill:rgb(0%,0%,0%);fill-opacity:1;" d="M 89.429688 188.496094 C 87.269531 189.355469 86.332031 191.445312 86.332031 195.1875 C 86.332031 199.503906 88.492188 202.304688 91.65625 202.023438 C 94.605469 201.734375 95.183594 199.503906 92.304688 199.144531 C 90.867188 198.996094 90.148438 198.347656 89.640625 196.910156 C 88.5625 193.960938 89.859375 191.082031 92.304688 190.796875 C 93.746094 190.582031 94.246094 190.222656 94.105469 189.355469 C 93.816406 187.917969 91.730469 187.558594 89.429688 188.496094 Z M 89.429688 188.496094 "/>
<path style=" stroke:none;fill-rule:nonzero;fill:rgb(0%,0%,0%);fill-opacity:1;" d="M 108.207031 188.566406 C 107.558594 189.714844 109.066406 190.941406 110.433594 190.363281 C 111.441406 190.003906 111.515625 189.714844 110.792969 188.855469 C 109.714844 187.558594 108.925781 187.488281 108.207031 188.566406 Z M 108.207031 188.566406 "/>
<path style=" stroke:none;fill-rule:nonzero;fill:rgb(0%,0%,0%);fill-opacity:1;" d="M 170.9375 188.277344 C 170.652344 188.566406 169.359375 188.710938 167.992188 188.636719 L 165.472656 188.421875 L 165.472656 197.34375 C 165.472656 204.394531 165.691406 206.480469 166.550781 207.199219 C 167.773438 208.207031 167.917969 207.917969 168.710938 203.386719 C 169.070312 201.15625 169.359375 200.796875 170.148438 201.445312 C 171.730469 202.742188 174.894531 201.945312 176.40625 199.933594 C 177.34375 198.710938 177.84375 196.910156 177.84375 194.539062 C 177.84375 191.660156 177.484375 190.722656 175.902344 189.429688 C 174.035156 187.773438 171.945312 187.34375 170.9375 188.277344 Z M 173.964844 191.515625 C 175.472656 193.027344 175.042969 197.628906 173.242188 198.855469 C 169.859375 201.226562 168.351562 199.863281 168.351562 194.179688 C 168.351562 192.738281 168.566406 191.371094 168.851562 191.15625 C 169.648438 190.363281 173.027344 190.582031 173.964844 191.515625 Z M 173.964844 191.515625 "/>
<path style=" stroke:none;fill-rule:nonzero;fill:rgb(0%,0%,0%);fill-opacity:1;" d="M 181.730469 188.351562 C 181.589844 188.636719 182.160156 191.804688 183.027344 195.328125 C 184.609375 201.585938 184.753906 201.804688 186.695312 201.804688 C 188.277344 201.804688 188.925781 201.375 189.285156 200.003906 C 190.074219 197.128906 190.003906 188.351562 189.214844 188.855469 C 188.855469 189.070312 188.496094 190.003906 188.496094 190.871094 C 188.496094 191.730469 188.132812 193.746094 187.703125 195.257812 C 187.125 197.34375 186.765625 197.847656 186.265625 197.054688 C 185.90625 196.480469 185.617188 195.398438 185.617188 194.609375 C 185.546875 190.222656 183.097656 186.195312 181.730469 188.351562 Z M 181.730469 188.351562 "/>
<path style=" stroke:none;fill-rule:nonzero;fill:rgb(0%,0%,0%);fill-opacity:1;" d="M 197.628906 188.277344 C 197.488281 188.636719 196.910156 190.871094 196.410156 193.3125 C 195.90625 195.832031 195.257812 197.703125 194.96875 197.488281 C 194.679688 197.34375 194.03125 195.1875 193.53125 192.8125 C 193.027344 190.433594 192.308594 188.496094 192.019531 188.496094 C 191.082031 188.496094 191.300781 196.335938 192.308594 199.285156 C 192.953125 201.15625 193.601562 201.875 194.96875 202.023438 C 196.625 202.164062 196.910156 201.804688 198.710938 195.546875 C 200.078125 190.652344 200.367188 188.710938 199.789062 188.351562 C 198.710938 187.632812 197.988281 187.632812 197.628906 188.277344 Z M 197.628906 188.277344 "/>
<path style=" stroke:none;fill-rule:nonzero;fill:rgb(0%,0%,0%);fill-opacity:1;" d="M 207.058594 188.277344 C 206.339844 188.421875 205.761719 189.070312 205.761719 189.714844 C 205.761719 190.511719 206.191406 190.722656 207.488281 190.363281 C 210.726562 189.574219 211.515625 190.433594 211.515625 194.96875 C 211.515625 197.34375 211.226562 199.429688 210.796875 199.644531 C 209.359375 200.507812 210.148438 201.226562 212.667969 201.300781 C 215.042969 201.375 215.257812 201.226562 214.824219 199.789062 C 214.613281 198.925781 214.394531 196.480469 214.394531 194.390625 C 214.394531 188.925781 212.019531 186.984375 207.058594 188.277344 Z M 207.058594 188.277344 "/>
<path style=" stroke:none;fill-rule:nonzero;fill:rgb(0%,0%,0%);fill-opacity:1;" d="M 219.71875 188.710938 C 219.574219 189.214844 219.429688 192.453125 219.574219 195.761719 C 219.71875 200.582031 220.007812 201.804688 220.871094 201.804688 C 221.730469 201.804688 222.019531 200.582031 222.164062 196.191406 L 222.378906 190.652344 L 224.464844 190.652344 C 226.984375 190.652344 227.703125 189.714844 226.265625 188.496094 C 225.402344 187.773438 224.96875 187.773438 224.179688 188.421875 C 223.386719 189.070312 222.738281 189.144531 221.589844 188.496094 C 220.4375 187.917969 220.078125 187.917969 219.71875 188.710938 Z M 219.71875 188.710938 "/>
<path style=" stroke:none;fill-rule:nonzero;fill:rgb(0%,0%,0%);fill-opacity:1;" d="M 231.589844 189.863281 C 226.914062 194.539062 230.363281 203.171875 236.480469 202.023438 C 238.066406 201.734375 238.207031 199.71875 236.695312 199.574219 C 236.121094 199.503906 235.257812 199.429688 234.828125 199.355469 C 234.398438 199.355469 233.601562 198.277344 233.101562 197.128906 C 231.730469 193.890625 233.242188 190.652344 236.050781 190.652344 C 238.277344 190.652344 238.925781 188.996094 236.984375 188.207031 C 234.898438 187.414062 233.75 187.773438 231.589844 189.863281 Z M 231.589844 189.863281 "/>
<path style=" stroke:none;fill-rule:nonzero;fill:rgb(0%,0%,0%);fill-opacity:1;" d="M 250.007812 188.496094 C 247.707031 188.78125 247.058594 189.214844 246.480469 190.796875 C 245.691406 193.027344 247.273438 195.472656 249.863281 195.832031 C 251.949219 196.121094 253.027344 198.136719 251.875 199.574219 C 251.15625 200.4375 250.65625 200.507812 249.214844 199.863281 C 247.273438 198.925781 246.410156 199.429688 247.058594 201.085938 C 247.347656 201.945312 248.136719 202.09375 250.507812 201.734375 C 254.464844 201.15625 255.546875 200.222656 255.261719 197.917969 C 255.113281 196.625 254.253906 195.6875 252.597656 194.828125 C 249.359375 193.171875 248.785156 192.59375 249.359375 191.082031 C 249.71875 190.074219 250.367188 189.933594 252.238281 190.292969 C 254.105469 190.582031 254.683594 190.433594 254.683594 189.714844 C 254.683594 188.277344 253.460938 187.992188 250.007812 188.496094 Z M 250.007812 188.496094 "/>
<path style=" stroke:none;fill-rule:nonzero;fill:rgb(0%,0%,0%);fill-opacity:1;" d="M 103.742188 189.355469 C 102.160156 190.941406 102.738281 194.179688 104.679688 195.113281 C 106.980469 196.191406 107.699219 195.398438 106.476562 193.171875 C 105.757812 191.730469 105.6875 191.15625 106.335938 190.511719 C 106.835938 190.003906 107.195312 189.355469 107.195312 189.070312 C 107.195312 188.207031 104.679688 188.421875 103.742188 189.355469 Z M 103.742188 189.355469 "/>
<path style=" stroke:none;fill-rule:nonzero;fill:rgb(0%,0%,0%);fill-opacity:1;" d="M 62.089844 195.257812 C 60.363281 196.769531 60.214844 197.199219 60.792969 198.925781 C 61.582031 201.15625 63.671875 202.8125 64.53125 201.945312 C 64.820312 201.660156 64.679688 200.726562 64.171875 199.933594 C 63.023438 198.136719 63.671875 195.90625 65.539062 195.328125 C 66.261719 195.039062 66.765625 194.539062 66.546875 194.179688 C 65.828125 193.101562 64.171875 193.460938 62.089844 195.257812 Z M 62.089844 195.257812 "/>
<path style=" stroke:none;fill-rule:nonzero;fill:rgb(0%,0%,0%);fill-opacity:1;" d="M 205.902344 194.679688 C 203.820312 196.121094 203.746094 200.003906 205.761719 201.300781 C 207.917969 202.59375 208.640625 201.804688 207.703125 199.214844 C 206.910156 197.269531 207.058594 196.910156 208.496094 195.761719 C 211.226562 193.746094 208.78125 192.59375 205.902344 194.679688 Z M 205.902344 194.679688 "/>
<path style=" stroke:none;fill-rule:nonzero;fill:rgb(0%,0%,0%);fill-opacity:1;" d="M 108.277344 194.96875 C 108.058594 195.328125 108.277344 196.265625 108.777344 197.054688 C 109.574219 198.277344 109.496094 198.710938 108.492188 199.71875 C 107.484375 200.726562 107.054688 200.796875 106.1875 200.078125 C 105.539062 199.574219 104.535156 199.355469 103.816406 199.574219 C 102.808594 200.003906 102.738281 200.222656 103.671875 201.085938 C 105.257812 202.664062 110.722656 201.660156 111.65625 199.574219 C 112.089844 198.710938 112.234375 197.488281 112.015625 196.839844 C 111.441406 195.398438 108.851562 194.03125 108.277344 194.96875 Z M 108.277344 194.96875 "/>
</g>
</svg>
